<svg xmlns="http://www.w3.org/2000/svg" viewBox="0 0 128 128">
    <defs>
        <linearGradient id="g" x1="0" y1="0" x2="1" y2="1">
            <stop offset="0" stop-color="#60A5FA"/>
            <stop offset="1" stop-color="#6366F1"/>
        </linearGradient>
    </defs>

    <!-- Fond -->
    <rect x="8" y="8" width="112" height="112" rx="24" fill="#0b1220"/>
    <rect x="8" y="8" width="112" height="112" rx="24" fill="url(#g)" opacity="0.12"/>

    <!-- Document (portfolio) -->
    <rect x="28" y="20" width="72" height="88" rx="10" fill="#ffffff" />
    <!-- Coin plié -->
    <polygon points="88,20 100,20 100,32" fill="#E2E8F0"/>

    <!-- Marque-page -->
    <path d="M36 20 h10 v22 l-5 -5 -5 5 z" fill="url(#g)"/>

    <!-- Code </> -->
    <g fill="none" stroke="url(#g)" stroke-width="6" stroke-linecap="round" stroke-linejoin="round">
        <path d="M52 56 L40 64 L52 72"/>
        <path d="M76 56 L88 64 L76 72"/>
        <path d="M72 50 L56 78"/>
    </g>

    <!-- Petites tuiles (projets) -->
    <rect x="44" y="86" width="8" height="8" rx="2" fill="#CBD5E1"/>
    <rect x="60" y="86" width="8" height="8" rx="2" fill="#CBD5E1"/>
    <rect x="76" y="86" width="8" height="8" rx="2" fill="#CBD5E1"/>
</svg>
